# xmcd CD database file
#
# Track frame offsets:
#	150
#	10834
#	24454
#	37464
#	51810
#	63470
#	77418
#	94345
#	110435
#	122704
#	139742
#	154022
#	167148
#	179087
#	193096
#	205234
#	218311
#	229575
#	248437
#	265293
#
# Disc length: 3730 seconds
#
# Revision: 0
# Processed by: cddbd v1.5PL3 Copyright (c) Steve Scherf et al.
# Submitted via: CDex 1.51
#
DISCID=140e9014
DTITLE=Various Artist - Die Superoldies der Volksmusik
DYEAR=1900
DGENRE=Volksmusik
TTITLE0=Zillertaler Schürzenjäger - Logo Logo
TTITLE1=Bianca - Die Rosen der Madonna
TTITLE2=Stefan Mross - Heimwehmelodie
TTITLE3=Stefanie Hertel and Stefan Mross - Ein Lied für jeden Sonnenstrahl
TTITLE4=Original Naabtal Duo - Patrona Bavariae
TTITLE5=Tiroler Nachtigallen - A richtiger Mann
TTITLE6=Goldried Quintett - Der Paul und sein Gaul 
TTITLE7=Kastelruther Spatzen - Eine weiße Rose
TTITLE8=Geraldine Olivier - Nimm dir wieder einmal Zeit
TTITLE9=Alpentrio Tirol - Der depperte Bua
TTITLE10=Atlantis - Halt mi fest
TTITLE11=Original Tiroler Echo - Die Sterne am Himmel
TTITLE12=Original Alpenland Quintett - Guten Morgen 
TTITLE13=Original Grenzland Sextett - Mei Großvater war a Musikant
TTITLE14=Alpenoberkrainer mit Ivanka and Janko - Trachtenfest
TTITLE15=Casanovas - Frau Meier
TTITLE16=Die Kasermandln - Rehbraune Augen
TTITLE17=Robert Jung- La Pastorella (Die Schäferin vom Val Gardena)
TTITLE18=Horst Chmela - Ana hat immer das Bummerl
TTITLE19=Alpenrocker - Fürstenfeld (I wui wieder hoam)
EXTD=
EXTT0=
EXTT1=
EXTT2=
EXTT3=
EXTT4=
EXTT5=
EXTT6=
EXTT7=
EXTT8=
EXTT9=
EXTT10=
EXTT11=
EXTT12=
EXTT13=
EXTT14=
EXTT15=
EXTT16=
EXTT17=
EXTT18=
EXTT19=
PLAYORDER=
